<?xml version="1.0" encoding="UTF-8"?>
<svg width="24px" height="24px" viewBox="0 0 24 24" version="1.1" xmlns="http://www.w3.org/2000/svg" xmlns:xlink="http://www.w3.org/1999/xlink">
    <!-- Generator: Sketch 62 (91390) - https://sketch.com -->
    <title>icon/search</title>
    <desc>Created with Sketch.</desc>
    <g id="Symbols" stroke="none" stroke-width="1" fill="none" fill-rule="evenodd">
        <g id="icon/search" fill="#333333" fill-rule="nonzero">
            <path d="M21.0313895,23.1787109 L14.9252232,17.1135603 C13.5390429,18.2135386 11.9075224,18.5282925 9.82200129,18.5282925 C4.94872778,18.5282925 1,14.6054606 1,9.76414623 C1,4.92458468 4.94872778,1 9.82200129,1 C14.6935104,1 18.6440026,4.92458468 18.6440026,9.76414623 C18.6440026,11.8990923 18.2455252,13.5812813 17.0754743,15.0189732 L23.1065848,21.03976 L21.0313895,23.1787109 Z M3.83369619,9.79408794 C3.83369619,13.1075868 6.5201973,15.7940879 9.83369619,15.7940879 C13.1471951,15.7940879 15.8336962,13.1075868 15.8336962,9.79408794 C15.8336962,6.48058904 13.1471951,3.79408794 9.83369619,3.79408794 C6.5201973,3.79408794 3.83369619,6.48058904 3.83369619,9.79408794 Z" id="icon-search"></path>
        </g>
    </g>
</svg>